<svg id="Isolation_Mode" xmlns="http://www.w3.org/2000/svg" viewBox="0 0 499.63 144.07"><defs><style>.cls-1{fill:#fff}</style></defs><g id="Horizontal"><g id="Glyph"><path d="M.3 139.52c-1.37 3.04 2.24 5.9 4.88 3.86l45.72-35.24c1.27-.98 1.43-2.84.34-4.02L27.78 78.61.3 139.52Z" style="fill:#07c0f8"/><path d="M98.17 71.8 68.32 1.95c-1.1-2.57-4.73-2.61-5.88-.06L27.8 78.62l35.69 17.79c1.02.51 2.23.39 3.13-.31l31.54-24.31Z" style="fill:#0c9ece"/><path d="M117.14 116.19 98.17 71.8 78.6 100.26a2.687 2.687 0 0 0 1.04 3.94l33.15 16.13c2.67 1.3 5.52-1.41 4.35-4.15Z" style="fill:#107da5"/></g><g id="Text"><path class="cls-1" d="m172.33 101.83 2.63 6.35h12.28l-4.4-9.85-10.51 3.5zM164.63 57.6h-11.56l-22.55 50.58h12L147 97.34h23.49l.06.15 11.88-.1-17.79-39.79Zm-13.87 30.86 8.02-19.37 8.02 19.37h-16.04ZM235.33 60.74c-4.22-2.1-9.07-3.14-14.56-3.14h-22.98v50.58h22.98c5.49 0 10.34-1.05 14.56-3.14 4.21-2.1 7.49-5.05 9.83-8.85 2.34-3.81 3.5-8.24 3.5-13.3s-1.17-9.49-3.5-13.3c-2.34-3.81-5.61-6.76-9.83-8.85Zm-3.04 33.6c-3.01 2.82-7.05 4.23-12.1 4.23H209.5V67.21h10.69c5.06 0 9.09 1.41 12.1 4.23 3.01 2.82 4.52 6.64 4.52 11.45s-1.51 8.64-4.52 11.45ZM262.76 108.18h11.44l.26-18.33v-.1h.01l.13-9.39h-.14V66.99h26.52V57.6h-38.22v50.58z"/><path class="cls-1" d="M297.88 89.75v-9.39h-21.75l2.9 9.39h18.85zM314.21 57.6h11.71v50.58h-11.71zM387.34 57.6h-12.65L363.27 74l-11.63-16.4h-13.3l17.78 24.86-18.72 25.72h13.44l12-17.56 12.21 17.56h13.52l-18.86-26.16 17.63-24.42zM433.15 85.49c0 4.67-.96 8.11-2.89 10.3-1.93 2.19-4.72 3.29-8.38 3.29-7.52 0-11.27-4.53-11.27-13.59V57.6H398.9v28.33c0 7.42 2.01 13.13 6.03 17.13 4.02 4 9.65 6 16.87 6s12.85-2 16.87-6c4.02-4 6.03-9.71 6.03-17.13V57.6h-11.56v27.89ZM497 85.35a15.833 15.833 0 0 0-6.32-4.34c-2.46-.91-5.61-1.83-9.47-2.75-3.71-.82-6.47-1.65-8.27-2.49-1.81-.84-2.71-2.13-2.71-3.87s.78-3.13 2.35-4.19c1.57-1.06 3.99-1.59 7.26-1.59 4.67 0 9.35 1.33 14.02 3.97l3.61-8.89c-2.31-1.45-5.01-2.55-8.09-3.32a38.92 38.92 0 0 0-9.47-1.16c-4.62 0-8.54.7-11.74 2.1-3.2 1.4-5.6 3.29-7.19 5.67-1.59 2.38-2.38 5.05-2.38 7.98 0 3.37.88 6.07 2.64 8.09 1.76 2.02 3.87 3.49 6.32 4.41 2.46.92 5.61 1.83 9.47 2.75 2.5.58 4.49 1.11 5.96 1.59 1.47.48 2.67 1.12 3.61 1.91.94.79 1.41 1.8 1.41 3 0 1.64-.79 2.95-2.38 3.94-1.59.99-4.05 1.48-7.37 1.48-2.99 0-5.97-.48-8.96-1.45-2.99-.96-5.56-2.24-7.73-3.83l-3.97 8.82c2.26 1.73 5.26 3.14 9 4.23a41.52 41.52 0 0 0 11.6 1.63c4.63 0 8.55-.7 11.78-2.1 3.23-1.4 5.65-3.29 7.26-5.67 1.61-2.38 2.42-5.02 2.42-7.91 0-3.37-.88-6.05-2.64-8.02Z"/></g></g></svg>